<?xml version="1.0" encoding="UTF-8"?>
<svg id="Layer_1" xmlns="http://www.w3.org/2000/svg" version="1.1" viewBox="0 0 500 500">
  <!-- Generator: Adobe Illustrator 30.3.0, SVG Export Plug-In . SVG Version: 2.1.3 Build 182)  -->
  <defs>
    <style>
      .st0 {
        fill: #0014ff;
      }

      .st1 {
        fill: #fff;
      }
    </style>
  </defs>
  <path class="st0" d="M273.8,377.39c15.43,14.16,16.46,37.11,2.56,51.93-13.92,14.83-37.33,14.88-51.49.36-14.18-14.54-13.62-37.4,1.6-51.67,5.32-5,8.37-12.66,8.32-20.08l-.16-27.8c-.06-10.79-7.66-19.77-15.56-24.44-9.84-5.82-21.4-7.53-31.06-1.97l-23.96,13.78c-6.13,3.53-11.08,10.13-12.85,17.22-5.02,20.1-24.28,32.18-44.24,27.06-19.45-4.98-30.83-25.29-25.21-44.52s26.07-30.15,45.97-24.05c8.18,2.51,16.97-.23,24-4.45l22.07-13.25c9.03-5.42,12.6-16.64,12.35-26.75s-4.34-20.43-13.48-25.87l-20.51-12.21c-8.6-5.12-17.78-6.48-27.44-3.98-19.27,4.98-38.42-6.97-43.28-25.55-5.05-19.34,6.61-38.84,25.78-43.64s38.58,6.44,43.63,26.28c1.88,7.41,6.48,13.93,13.13,17.92,20.64,12.39,34.94,24.31,55.75,11.43,7.38-4.57,14.78-13.17,14.87-23.54l.24-28.47c.08-9.26-4.78-16.35-10.84-22.74-13.34-14.07-12.11-36.18,1.26-49.35,13.77-13.57,35.72-13.75,49.73-.36,13.72,13.11,15.34,35.46,1.75,49.71-6.03,6.32-10.89,13.53-10.83,22.76l.16,27.73c.06,10.38,7.1,19.22,14.44,23.94,21.26,13.69,34.37,1.03,51.75-8.24,8.44-4.5,15.09-11.33,17.59-20.87,5.05-19.26,23.87-30.95,43-26.46,19.3,4.53,31.25,23.71,26.55,43.21-4.56,18.88-23.64,31.35-43.25,26.19-8.32-2.19-16.72-2.09-24.4,2.4l-23.18,13.55c-9.33,5.45-13.78,16.04-13.98,26.18-.2,10.43,3.86,21.97,13.28,27.46l24.32,14.18c5.98,3.49,14.11,4.91,20.84,2.82,19.43-6.04,39.28,3.78,45.58,22.78,6.24,18.81-4,39.25-23,45.26-18.93,5.99-39.75-4.5-45.11-24.07-2.64-9.63-8.25-16.87-16.91-21.73l-21.42-12.01c-9.54-5.34-20.82-3.52-30.49,2.26-7.86,4.7-15.52,13.61-15.57,24.4l-.14,27.85c-.03,6.82,2.44,14.48,7.83,19.43Z"/>
  <path class="st1" d="M194.11,386.77c3.37,15.55-5.6,29.89-20.4,33.81-14.43,3.82-29.73-4.77-33.89-19.44-4.11-14.49,3.83-29.7,18.6-34.56,10.2-3.36,17.09-10.42,22.35-19.49l12-20.69c3.04-5.24,10.37-6.1,14.91-3.25,5.29,3.33,6.95,9.78,3.72,15.39l-13.44,23.38c-4.25,7.4-5.77,15.97-3.85,24.84Z"/>
  <path class="st1" d="M342.36,366.88c14.92,5.17,22.37,20.26,18.24,34.54-4.14,14.33-18.8,22.78-33.12,19.5-14.96-3.42-24.37-18.11-21.19-33.36,2.14-10.26-.28-19.77-5.38-28.65l-12.23-21.29c-2.97-5.16-.31-11.35,3.95-14.17,4.88-3.24,12.03-2.26,15.25,3.17l15.49,26.2c4.11,6.95,11.15,11.34,19,14.05Z"/>
  <path class="st1" d="M211.05,159.57c3.35,5.74,2.74,11.81-2.26,15.76-4.37,3.46-12.36,3.23-15.67-2.37l-15.22-25.71c-4.07-6.88-11.26-11.98-18.88-14.54-14.77-4.95-23.04-19.64-19.02-34.48,3.88-14.3,18.65-23.23,33.06-19.93s24.67,17.96,21.4,33.05c-2.27,10.45,0,19.84,5.28,28.86l11.31,19.36Z"/>
  <path class="st1" d="M308.28,172.41c-3.31,5.64-10.31,6.47-14.99,3.81-5.63-3.2-7.11-10.14-3.86-15.75l13.77-23.81c3.97-6.87,5.26-15.42,3.49-23.3-3.46-15.45,4.86-30.51,19.94-34.61,14.72-4,30.22,4.66,34.37,19.74,4,14.51-4.2,29.58-19.15,34.41-8.33,2.69-15.39,8.51-19.8,16.04l-13.77,23.47Z"/>
  <path class="st1" d="M154.35,238.36c6.85-.01,11.26,5.41,11.32,11.24.07,6.36-5.17,11.11-11.79,11.09l-24.65-.08c-9.12-.03-18.26,3-25.12,9.1-11.62,10.33-28.25,10.5-39.21-.09-10.87-10.51-11.47-27.82-1.19-39.04,10.1-11.02,27.21-12.43,39.01-2.29,7.59,6.52,16.36,10.14,26.59,10.12l25.03-.04Z"/>
  <path class="st1" d="M345.54,260.76c-6.63-.03-10.9-6.41-10.44-11.68.55-6.38,5.27-10.53,11.78-10.57l28.72-.18c7.7-.05,15.51-3.83,21.19-8.86,11.76-10.42,28.76-10.39,39.68.76,10.52,10.74,10.62,28.2-.07,39.12-10.94,11.18-28.16,11.16-39.91.52-6.9-6.24-15.99-8.97-25.09-9.01l-25.87-.1Z"/>
</svg>